<?xml version="1.0" encoding="iso-8859-1"?>
<!-- Generator: Adobe Illustrator 16.0.0, SVG Export Plug-In . SVG Version: 6.00 Build 0)  -->
<!DOCTYPE svg PUBLIC "-//W3C//DTD SVG 1.1//EN" "http://www.w3.org/Graphics/SVG/1.1/DTD/svg11.dtd">
<svg version="1.1" id="Capa_1" xmlns="http://www.w3.org/2000/svg" xmlns:xlink="http://www.w3.org/1999/xlink" x="0px" y="0px"
	 width="60.707px" height="60.707px" viewBox="0 0 60.707 60.707" style="enable-background:new 0 0 60.707 60.707;"
	 xml:space="preserve">
<g>
	<g>
		<path d="M55.377,24.919c-4.115-3.246-8.23-6.492-12.346-9.738c-0.002-0.002-0.006-0.002-0.008-0.003
			c-0.027-0.025-0.064-0.05-0.117-0.071c-6.672-2.722-2.856,7.661-4.514,7.908c-6.086,0.909-12.17,1.816-18.257,2.725
			c-5.814,0.868-11.628,1.735-17.441,2.604C0.936,28.606,0,29.399,0,31.151c0,1.594,2.95,1.537,4.005,1.693
			c6.749,1.005,13.499,2.009,20.248,3.015c2.339,0.348,14.326,0.482,14.326,3.657c0,1.317-0.851,6.098,1.261,6.463
			c1.711,0.297,2.764-0.32,4.064-1.347c5.203-4.103,10.408-8.208,15.611-12.311c0.364-0.287,0.613-0.573,0.805-0.858
			c0.016-0.017,0.025-0.036,0.039-0.054c0.045-0.069,0.098-0.14,0.133-0.208c0.068-0.129,0.123-0.268,0.154-0.411
			C61.255,28.468,57.145,26.314,55.377,24.919z M2.33,29.856c-0.064,0.153-0.128,0.309-0.19,0.462
			c-0.054,0.131-0.101,0.262-0.139,0.388c-0.019-0.027-0.051-0.046-0.068-0.074c-0.332-0.542-0.01-0.936,0.609-1.229
			C2.47,29.541,2.398,29.691,2.33,29.856z M52.773,25.01c0.104,0.082,0.207,0.164,0.312,0.246c-1.814,3.778-3.71,7.517-5.721,11.197
			c-0.266,0.483-0.328,0.457-0.133-0.061c0.765-2.021,1.59-4.017,2.424-6.004c0.214-0.509,0.619-1.304,0.904-1.776
			C51.294,27.409,52.033,26.209,52.773,25.01z M44.25,18.286c0.393,0.311,0.786,0.62,1.179,0.931
			c-0.196,0.287-0.394,0.573-0.59,0.86c-0.312,0.456-0.873,0.893-1.237,1.031c-0.298,0.114-0.541,0.241-0.621,0.326
			c-0.142,0.151-0.275,0.308-0.408,0.465c-0.221,0.261-0.198,0.073,0.053-0.419C43.167,20.416,43.708,19.351,44.25,18.286z
			 M41.07,15.999c-0.023,0.033-0.055,0.064-0.075,0.099c-0.074,0.119-0.147,0.238-0.222,0.356
			C40.848,16.226,40.945,16.068,41.07,15.999z M40.729,19.895c0.606-0.984,1.215-1.966,1.821-2.949
			c0.062,0.049,0.126,0.1,0.188,0.148c-0.69,1.359-1.385,2.72-2.079,4.079c-0.039,0.075-0.074,0.147-0.11,0.222
			c-0.001-0.347-0.011-0.781-0.02-1.254C40.592,20.09,40.659,20.01,40.729,19.895z M6.836,29.107
			c-0.421,0.787-0.838,1.576-1.249,2.368c-0.096,0.186-0.102,0.359-0.066,0.519c-0.49-0.056-0.994-0.13-1.482-0.237
			c0.14-0.134,0.267-0.289,0.351-0.475c0.288-0.64,0.581-1.276,0.878-1.911c0.125-0.265,0.106-0.478-0.013-0.613
			c0.975-0.124,1.832-0.173,2.075-0.204C7.125,28.719,6.942,28.907,6.836,29.107z M10.252,32.633
			c-1.017-0.15-2.033-0.303-3.05-0.454c0.148-0.118,0.281-0.251,0.363-0.411c0.517-1.006,1.042-2.008,1.575-3.005
			c0.106-0.199,0.112-0.359,0.067-0.488c1.425-0.212,2.849-0.425,4.273-0.638c-0.201,0.156-0.383,0.328-0.497,0.511
			c-0.856,1.369-1.722,2.729-2.602,4.08C10.29,32.37,10.257,32.505,10.252,32.633z M14.475,32.813
			c-0.087,0.152-0.108,0.298-0.101,0.435c-0.812-0.121-1.625-0.242-2.438-0.363c0.149-0.104,0.283-0.226,0.376-0.367
			c1.021-1.559,2.021-3.132,3.009-4.715c0.114-0.185,0.132-0.332,0.103-0.454c0.86-0.128,1.722-0.257,2.583-0.386
			c-0.203,0.161-0.385,0.344-0.494,0.536C16.502,29.27,15.489,31.042,14.475,32.813z M22.882,34.063
			c-0.087,0.153-0.107,0.299-0.1,0.436c-1.723-0.256-3.444-0.513-5.167-0.769c0.149-0.112,0.283-0.241,0.37-0.396
			c1.213-2.153,2.425-4.308,3.648-6.452c0.109-0.192,0.121-0.35,0.082-0.475c2.034-0.304,4.068-0.606,6.103-0.911
			c-0.204,0.166-0.385,0.354-0.491,0.553C25.878,28.736,24.39,31.405,22.882,34.063z M27.1,35.14
			c-0.821-0.122-1.642-0.244-2.462-0.365c0.15-0.107,0.287-0.229,0.38-0.372c1.95-3.027,3.944-6.026,6.001-8.981
			c0.104-0.148,0.135-0.271,0.137-0.38c0.689-0.055,1.514-0.1,2.392-0.169c-0.069,0.077-0.146,0.153-0.194,0.233
			c-2.035,3.214-4.117,6.399-6.131,9.62C27.13,34.871,27.101,35.009,27.1,35.14z M29.235,35.457
			c-0.022-0.003-0.049-0.006-0.068-0.009c-0.103-0.017-0.206-0.03-0.309-0.046c0.014-0.018,0.037-0.028,0.048-0.047
			c0.1-0.168,0.199-0.335,0.302-0.502c2.081-3.391,4.258-6.725,6.388-10.084c0.029-0.046,0.032-0.082,0.053-0.125
			c0.037-0.006,0.074-0.01,0.11-0.016c-0.038,0.048-0.087,0.094-0.116,0.143c-2.1,3.421-4.195,6.844-6.29,10.268
			C29.262,35.186,29.235,35.325,29.235,35.457z M33.051,35.75c-0.727-0.065-1.41-0.112-2.009-0.152
			c0.09-0.084,0.176-0.172,0.235-0.271c2.221-3.634,4.439-7.268,6.666-10.897c0.078-0.125,0.113-0.236,0.123-0.335
			c0.814-0.282,1.494-0.669,1.959-1.191c-0.004,0.006-0.006,0.014-0.01,0.021c-0.195,0.297-0.678,0.821-0.931,1.312
			c-1.959,3.801-3.946,7.586-5.981,11.342C33.072,35.637,33.068,35.693,33.051,35.75z M37.863,34.811
			c-0.27,0.458-0.543,0.913-0.816,1.369c-0.023,0.041-0.025,0.079-0.043,0.119c-0.266-0.057-0.537-0.107-0.814-0.157
			c0.018-0.021,0.043-0.04,0.06-0.062c0.981-1.49,1.963-2.981,2.948-4.469c0.306-0.46,0.375-0.423,0.15,0.082
			C38.875,32.745,38.382,33.784,37.863,34.811z M42.867,42.576c-0.231,0.653-0.463,1.308-0.694,1.96
			c-0.28,0.184-0.522,0.266-0.722,0.252c0.419-0.761,0.839-1.521,1.26-2.282C42.979,42.023,43.049,42.054,42.867,42.576z
			 M40.707,41.733c-0.102,0.177-0.193,0.389-0.273,0.604c-0.076-1.473,0.077-3.178,0.077-3.844c0-0.727-0.671-1.264-1.687-1.665
			c0.121-0.104,0.226-0.22,0.298-0.354c0.377-0.694,0.745-1.396,1.101-2.102c2.586-4.384,5.121-8.801,7.692-13.196
			c0.878,0.692,1.757,1.386,2.635,2.079c-0.464,1.254-0.948,2.503-1.457,3.744c-0.864,1.671-1.754,3.33-2.649,4.985
			C44.505,35.219,42.598,38.47,40.707,41.733z M47.125,40.661c2.711-4.604,5.21-9.339,7.544-14.156
			c0.13,0.102,0.259,0.205,0.39,0.307c-2.18,4.17-4.287,8.381-6.359,12.609C48.173,39.834,47.648,40.248,47.125,40.661z
			 M57.333,32.612c-1.72,1.356-3.44,2.714-5.161,4.069c1.447-2.922,2.913-5.832,4.411-8.726c0.771,0.565,1.62,1.248,2.008,1.982
			C58.173,30.831,57.753,31.721,57.333,32.612z"/>
	</g>
</g>
<g>
</g>
<g>
</g>
<g>
</g>
<g>
</g>
<g>
</g>
<g>
</g>
<g>
</g>
<g>
</g>
<g>
</g>
<g>
</g>
<g>
</g>
<g>
</g>
<g>
</g>
<g>
</g>
<g>
</g>
</svg>
